<?xml version="1.0" encoding="UTF-8" ?>
<!DOCTYPE svg PUBLIC "-//W3C//DTD SVG 1.1//EN" "http://www.w3.org/Graphics/SVG/1.1/DTD/svg11.dtd">
<svg width="1519pt" height="854pt" viewBox="0 0 1519 854" version="1.1" xmlns="http://www.w3.org/2000/svg">
<g id="#ffffffff">
</g>
<g id="#8ac640ff">
<path fill="#8ac640" opacity="1.00" d=" M 0.00 165.13 C 139.66 165.14 279.31 165.15 418.97 165.13 C 419.41 173.08 418.69 181.04 418.86 189.00 C 418.89 279.00 418.83 369.00 418.87 459.00 C 418.97 500.62 418.64 542.24 419.08 583.85 C 279.39 584.14 139.69 583.75 0.00 584.04 L 0.00 165.13 M 37.82 202.89 C 37.63 253.60 37.86 304.32 37.71 355.03 C 37.74 356.93 37.85 358.84 38.00 360.75 C 52.95 360.80 67.91 360.50 82.86 360.89 C 83.62 369.96 83.26 379.08 83.10 388.16 C 68.05 388.36 53.01 388.15 37.97 388.29 C 37.45 408.85 37.91 429.43 37.75 450.00 C 37.79 482.05 37.68 514.11 37.81 546.16 C 65.87 546.40 93.94 546.18 122.00 546.26 C 146.59 546.17 171.18 546.43 195.77 546.13 C 195.86 532.81 195.78 519.48 195.78 506.16 C 204.95 506.11 214.13 505.64 223.30 506.11 C 223.45 519.40 223.31 532.69 223.35 545.98 C 245.55 546.62 267.79 546.08 290.00 546.26 C 320.42 546.16 350.85 546.46 381.26 546.11 C 381.55 523.41 381.30 500.70 381.38 478.00 C 381.31 448.08 381.52 418.15 381.28 388.22 C 366.21 388.24 351.13 388.33 336.06 388.16 C 335.80 379.05 335.76 369.93 336.13 360.83 C 351.21 360.35 366.33 361.24 381.39 360.37 C 381.27 307.86 381.60 255.34 381.23 202.83 C 355.82 202.46 330.41 202.78 305.00 202.67 C 277.79 202.82 250.56 202.39 223.36 202.89 C 223.30 216.20 223.49 229.50 223.25 242.81 C 214.20 242.63 205.14 243.45 196.09 242.89 C 195.40 229.57 196.08 216.22 195.71 202.88 C 176.82 202.40 157.90 202.81 139.00 202.67 C 105.28 202.81 71.54 202.40 37.82 202.89 Z" />
<path fill="#8ac640" opacity="1.00" d=" M 195.88 299.13 C 204.99 298.65 214.14 298.71 223.26 298.91 C 223.42 314.71 223.44 330.51 223.23 346.30 C 214.12 346.52 205.00 346.55 195.89 346.30 C 195.67 330.58 195.80 314.85 195.88 299.13 Z" />
<path fill="#8ac640" opacity="1.00" d=" M 139.17 360.87 C 153.21 360.59 167.26 360.67 181.30 360.81 C 181.55 369.89 181.58 378.98 181.30 388.06 C 167.28 388.36 153.23 388.36 139.21 388.07 C 138.66 379.02 138.72 369.92 139.17 360.87 Z" />
<path fill="#8ac640" opacity="1.00" d=" M 196.05 402.39 C 205.06 402.61 214.07 402.47 223.08 402.42 C 223.67 418.29 223.24 434.19 223.32 450.07 C 214.18 450.01 205.01 450.61 195.88 449.78 C 195.89 433.99 195.48 418.17 196.05 402.39 Z" />
<path fill="#8ac640" opacity="1.00" d=" M 811.71 498.15 C 811.78 497.26 812.04 496.43 812.49 495.66 C 813.32 516.14 812.70 536.66 812.84 557.16 C 878.89 557.39 944.94 557.19 1011.00 557.26 C 1033.70 556.98 1056.54 558.33 1079.08 554.99 C 1075.95 555.67 1072.82 556.31 1069.68 556.88 C 1069.62 558.08 1069.58 559.30 1069.55 560.52 C 1066.31 560.38 1063.07 560.38 1059.84 560.18 C 1058.61 559.51 1057.55 558.25 1056.08 558.32 C 976.04 558.37 896.00 558.28 815.96 558.37 C 814.31 558.51 812.88 557.64 811.48 556.94 C 811.98 537.35 811.52 517.74 811.71 498.15 Z" />
</g>
<g id="#515254ff">
<path fill="#515254" opacity="1.00" d=" M 880.01 190.29 C 886.46 190.05 892.50 187.15 898.98 187.30 C 911.32 187.02 923.66 187.16 936.00 187.13 C 993.00 187.13 1050.00 187.12 1107.00 187.13 C 1111.86 187.16 1116.75 186.76 1121.58 187.50 C 1121.23 203.66 1121.52 219.83 1121.43 236.00 C 1121.30 240.79 1121.87 245.66 1120.88 250.39 C 1057.26 250.15 993.63 250.35 930.01 250.30 C 921.74 250.43 913.27 249.87 905.30 252.45 C 897.76 255.89 890.53 261.50 887.74 269.59 C 885.85 273.81 886.42 278.52 886.29 283.00 C 886.45 288.47 885.64 294.18 887.78 299.38 C 889.51 304.96 893.81 309.15 897.98 313.02 C 902.27 317.17 908.14 318.87 913.32 321.58 C 930.00 328.78 947.71 333.10 965.13 338.11 C 1004.66 349.81 1045.13 358.81 1083.32 374.61 C 1091.73 377.96 1099.30 383.03 1106.70 388.18 C 1116.49 395.61 1124.51 405.49 1129.22 416.88 C 1134.13 427.60 1136.04 439.37 1137.54 450.96 C 1137.55 461.95 1138.45 473.06 1136.54 483.94 C 1135.20 495.68 1132.36 507.44 1126.81 517.95 C 1122.46 526.67 1116.86 534.96 1109.28 541.19 C 1100.48 548.07 1090.09 552.98 1079.08 554.99 C 1056.54 558.33 1033.70 556.98 1011.00 557.26 C 944.94 557.19 878.89 557.39 812.84 557.16 C 812.70 536.66 813.32 516.14 812.49 495.66 C 883.01 495.69 953.53 495.68 1024.04 495.66 C 1039.07 495.97 1053.84 483.36 1054.16 468.01 C 1054.99 456.93 1054.39 444.30 1046.08 435.93 C 1041.52 430.32 1034.59 427.79 1028.13 425.10 C 1021.68 422.47 1014.92 420.76 1008.29 418.70 C 1000.41 416.17 992.55 413.34 984.31 412.23 C 984.08 411.89 983.61 411.19 983.38 410.84 C 978.04 410.42 973.08 408.29 967.89 407.16 C 952.13 402.90 936.40 398.53 920.66 394.21 C 897.30 388.05 873.68 381.53 852.53 369.54 C 839.41 361.84 827.29 351.68 819.92 338.16 C 814.58 327.78 810.50 316.64 809.06 305.00 C 808.23 296.34 806.08 287.73 806.81 278.97 C 808.30 265.21 809.89 251.26 815.05 238.29 C 817.69 231.55 821.27 225.20 825.34 219.22 C 833.62 208.91 844.24 200.06 856.92 195.81 C 864.46 193.45 872.00 190.46 880.01 190.29 Z" />
<path fill="#515254" opacity="1.00" d=" M 558.34 190.00 C 567.80 188.34 577.44 188.84 587.00 188.75 C 646.25 188.81 705.50 188.64 764.75 188.84 C 764.64 207.15 764.75 225.47 764.69 243.78 C 711.13 243.76 657.56 243.77 604.00 243.78 C 597.67 244.25 591.33 244.31 585.00 244.53 C 572.29 246.05 559.51 248.86 548.11 254.90 C 534.36 261.82 522.91 273.23 516.12 287.06 C 506.99 305.33 504.81 325.96 502.69 345.99 C 502.46 355.33 502.37 364.68 501.71 374.00 C 502.59 384.32 502.19 394.70 502.84 405.03 C 503.97 412.34 504.13 419.78 505.60 427.04 C 508.50 446.33 514.05 466.05 526.73 481.33 C 538.67 495.93 557.54 503.26 575.98 504.58 C 582.00 504.56 587.97 505.46 594.00 505.24 C 621.66 505.20 649.33 505.23 677.00 505.23 C 680.82 505.16 684.65 504.84 688.46 504.42 C 697.19 502.37 703.66 493.93 703.58 484.98 C 703.79 449.58 703.52 414.16 703.71 378.76 C 726.91 378.59 750.11 378.65 773.31 378.73 C 773.43 422.81 773.30 466.91 773.38 511.00 C 773.48 516.32 772.54 521.58 771.79 526.83 C 769.56 536.34 765.08 546.17 756.47 551.48 C 745.67 558.26 732.59 560.56 719.99 560.31 C 666.33 560.25 612.67 560.41 559.00 560.23 C 546.05 559.56 533.06 557.68 520.69 553.66 C 500.86 547.77 482.86 536.32 468.68 521.31 C 456.51 508.04 448.02 491.77 442.26 474.80 C 437.92 460.51 434.45 445.88 433.10 430.98 C 431.31 422.41 432.14 413.59 430.60 405.00 C 429.88 386.33 429.70 367.62 430.60 348.96 C 432.17 340.27 431.27 331.36 432.96 322.68 C 434.36 309.63 436.74 296.66 440.25 284.01 C 446.51 262.29 456.87 241.15 473.44 225.43 C 495.80 203.13 527.44 192.61 558.34 190.00 Z" />
<path fill="#515254" opacity="1.00" d=" M 1291.37 190.05 C 1299.77 188.06 1308.46 189.09 1317.00 188.84 C 1376.16 188.88 1435.31 188.77 1494.46 188.90 C 1494.48 207.12 1494.82 225.36 1494.28 243.58 C 1440.52 243.37 1386.76 243.56 1333.00 243.49 C 1325.94 243.34 1318.98 244.72 1311.92 244.48 C 1300.84 246.23 1289.72 248.88 1279.56 253.79 C 1270.75 258.44 1262.28 264.15 1255.90 271.90 C 1244.80 284.84 1239.21 301.45 1236.27 317.99 C 1235.97 321.70 1234.38 325.19 1234.43 328.93 C 1234.58 334.04 1232.61 338.90 1232.67 344.00 C 1232.59 348.30 1232.74 352.61 1232.42 356.91 C 1231.06 368.54 1231.14 380.36 1232.41 391.99 C 1233.01 399.22 1232.02 406.57 1233.62 413.71 C 1234.68 418.23 1234.01 422.98 1235.44 427.43 C 1238.59 447.47 1244.46 468.22 1258.47 483.51 C 1267.89 494.00 1281.05 500.57 1294.78 503.24 C 1301.34 505.27 1308.30 504.28 1315.02 505.43 C 1343.67 505.61 1372.34 505.45 1401.00 505.51 C 1406.35 505.44 1411.76 505.83 1417.07 504.88 C 1423.74 504.17 1429.38 499.16 1432.24 493.28 C 1433.77 488.70 1434.66 483.84 1434.51 478.99 C 1434.39 445.69 1434.64 412.39 1434.38 379.10 C 1445.57 378.50 1456.79 378.99 1468.00 378.83 C 1479.80 378.94 1491.60 378.61 1503.40 378.99 C 1503.49 419.66 1503.41 460.33 1503.44 501.00 C 1503.63 512.99 1503.22 525.41 1498.47 536.61 C 1495.33 544.22 1489.16 550.51 1481.66 553.89 C 1474.02 557.74 1465.45 559.16 1457.05 560.14 C 1404.37 560.23 1351.68 560.16 1299.00 560.18 C 1292.74 560.04 1286.39 560.64 1280.25 559.16 C 1276.31 558.16 1272.19 558.68 1268.26 557.73 C 1248.18 554.05 1228.61 546.17 1212.51 533.50 C 1195.66 520.43 1183.04 502.35 1175.48 482.49 C 1171.83 473.90 1169.74 464.78 1167.46 455.78 C 1165.70 446.90 1163.65 438.04 1163.38 428.97 C 1161.13 417.81 1162.03 406.35 1161.44 395.04 C 1161.74 387.00 1160.35 379.02 1160.77 371.00 C 1162.06 357.39 1161.30 343.67 1162.38 330.05 C 1163.08 326.40 1163.78 322.73 1163.71 318.98 C 1166.35 298.71 1170.90 278.38 1179.69 259.79 C 1187.63 242.61 1199.76 227.34 1214.94 216.00 C 1232.84 202.50 1254.63 195.07 1276.60 191.63 C 1281.41 190.16 1286.48 190.95 1291.37 190.05 Z" />
<path fill="#515254" opacity="1.00" d=" M 97.30 257.08 C 172.11 256.95 246.92 256.95 321.73 257.07 C 321.59 266.29 321.66 275.50 321.70 284.72 C 256.14 284.89 190.59 284.70 125.04 284.81 C 124.98 344.59 125.02 404.38 125.02 464.16 C 181.34 464.27 237.67 464.27 293.99 464.16 C 293.97 438.83 294.12 413.51 293.90 388.19 C 261.21 388.20 228.51 388.24 195.82 388.17 C 195.79 379.05 195.81 369.92 195.79 360.80 C 237.76 360.87 279.73 360.69 321.70 360.89 C 321.63 404.58 321.59 448.26 321.73 491.95 C 246.92 492.04 172.12 492.09 97.31 491.92 C 97.31 413.64 97.34 335.36 97.30 257.08 Z" />
</g>
</svg>
